<svg xmlns="http://www.w3.org/2000/svg" xmlns:xlink="http://www.w3.org/1999/xlink" version="1.1" id="bmi-gauge" x="0px" y="0px" viewBox="0 0 362.504 181.252" style="enable-background:new 0 0 362.504 181.252;" xml:space="preserve">
<g>
	<g>
		<g>
			<g>
				<g>
					<g>
						<path style="fill:#6B6B6B;" d="M323.091,74.647c-22.206-30.267-53.861-53.163-90.624-64.341        c-16.206-4.928-33.399-7.587-51.215-7.587c-20.513,0-40.199,3.525-58.502,9.982C88.101,24.924,58.43,47.69,37.598,77.156        c-20.255,28.649-32.16,63.622-32.16,101.377c0,0,47.215-0.211,107.039-0.402c0.086-14.886,4.913-28.64,13.028-39.859        c7.905-10.93,18.932-19.447,31.787-24.226c7.462-2.775,15.533-4.299,23.962-4.299c5.735,0,11.303,0.712,16.628,2.034        c14.951,3.714,27.956,12.322,37.245,24.022c9.184,11.569,14.737,26.151,14.895,42.033        c60.11-0.038,102.413,0.696,107.045,0.696C357.067,139.667,344.446,103.753,323.091,74.647z"/>
						<path style="fill:#E6E6E6;" d="M319.168,77.521c-21.592-29.43-52.371-51.693-88.117-62.562        c-15.757-4.791-32.475-7.377-49.799-7.377c-19.945,0-39.087,3.428-56.884,9.706C90.678,29.173,61.827,51.309,41.571,79.96        c-19.695,27.857-31.27,61.862-31.27,98.573c0,0,45.909-0.205,104.079-0.391c0.083-14.474,4.777-27.847,12.667-38.757        c7.686-10.627,18.408-18.909,30.908-23.556c7.256-2.698,15.103-4.18,23.299-4.18c5.577,0,10.99,0.692,16.169,1.978        c14.537,3.611,27.183,11.981,36.214,23.358c8.93,11.249,14.33,25.428,14.484,40.871c58.447-0.037,100.42,0.677,104.084,0.677        C352.204,140.742,339.932,105.822,319.168,77.521z"/>
						<g>
							<path style="fill:#FEDA00;" d="M181.252,16.098c-18.952,0-37.14,3.257-54.05,9.222l31.913,93.633         c6.894-2.563,14.351-3.972,22.138-3.972c5.299,0,10.443,0.657,15.363,1.879l31.954-93.754         C213.598,18.555,197.713,16.098,181.252,16.098z"/>
							<path style="fill:#52C9F7;" d="M18.817,178.533c0,0,43.622-0.195,98.894-0.371c0.079-13.753,4.539-26.46,12.036-36.826         L48.529,84.87C29.816,111.34,18.817,143.651,18.817,178.533z"/>
							<path style="fill:#97CD17;" d="M48.529,84.87l81.218,56.466c7.303-10.098,17.491-17.967,29.368-22.383L127.202,25.32         C95.19,36.614,67.776,57.646,48.529,84.87z"/>
							<path style="fill:#F8931F;" d="M228.57,23.107l-31.954,93.754c13.813,3.431,25.829,11.384,34.41,22.194l81.271-56.503         C291.782,54.589,262.536,33.435,228.57,23.107z"/>
							<path style="fill:#FE0000;" d="M312.298,82.552l-81.271,56.503c8.485,10.689,13.616,24.161,13.762,38.835         c55.536-0.035,95.018,0.643,98.899,0.643C343.688,142.625,332.027,109.444,312.298,82.552z"/>
						</g>
						<path style="opacity:0.35;" d="M297.277,177.992c0-64.078-51.946-115.483-116.024-115.483        c-64.078,0-116.024,51.946-116.024,116.024C65.229,178.533,291.517,177.992,297.277,177.992z"/>
						<g>
							<path style="fill:#F7CB2A;" d="M181.253,101.121c-9.352,0-18.316,1.658-26.615,4.697l4.477,13.136         c6.894-2.563,14.351-3.972,22.138-3.972c5.299,0,10.443,0.657,15.363,1.879l4.486-13.16         C194.766,102.024,188.116,101.121,181.253,101.121z"/>
							<path style="fill:#52C9F7;" d="M129.747,141.336l-11.384-7.915c-9.07,12.622-14.445,28.073-14.514,44.786         c4.525-0.015,9.147-0.03,13.862-0.045C117.79,164.409,122.25,151.702,129.747,141.336z"/>
							<path style="fill:#97CD17;" d="M118.363,133.421l11.384,7.915c7.303-10.098,17.491-17.967,29.368-22.383l-4.477-13.136         C139.939,111.199,127.343,120.924,118.363,133.421z"/>
							<path style="fill:#EA7F16;" d="M201.102,103.701l-4.486,13.16c13.813,3.431,25.829,11.384,34.41,22.194l11.404-7.928         C232.174,117.911,217.742,108.103,201.102,103.701z"/>
							<path style="fill:#C7393D;" d="M231.027,139.055c8.485,10.689,13.616,24.161,13.762,38.835         c4.714-0.003,9.335-0.005,13.861-0.005c-0.145-17.615-6.176-33.817-16.219-46.758L231.027,139.055z"/>
						</g>
						<g class="needle" style="transform-origin: 183px 156px;">
							<path style="fill:#191919;" d="M197.179,139.173l0.021-0.01L139.336,60.46l22.85,94.975l0.022-0.01         c0.296,1.669,0.787,3.329,1.536,4.939c4.648,10.002,16.525,14.342,26.527,9.694c10.002-4.648,14.342-16.525,9.694-26.527         C199.216,141.921,198.264,140.475,197.179,139.173z"/>
							<path style="fill:#474747;" d="M194.216,140.981l0.018-0.008L146.72,76.349l18.762,77.985l0.018-0.008         c0.243,1.37,0.647,2.733,1.261,4.055c3.817,8.213,13.569,11.777,21.782,7.96c8.213-3.817,11.777-13.569,7.96-21.782         C195.888,143.238,195.107,142.051,194.216,140.981z"/>
							<path style="fill:#191919;" d="M191.765,146.443c2.632,5.664,0.175,12.389-5.489,15.021         c-5.664,2.632-12.389,0.175-15.021-5.489c-2.632-5.664-0.175-12.389,5.489-15.021         C182.408,138.322,189.133,140.779,191.765,146.443z"/>
						</g>
					</g>
				</g>
				<g>
					<path style="fill:#FFFFFF;" d="M36.602,170.517l3.758,0.242c1.129,0.072,1.732-0.325,1.781-1.075       c0.049-0.776-0.47-1.237-1.627-1.311l-3.759-0.242l0.095-1.477l3.668,0.235c2.016,0.129,2.908,1.21,2.798,2.919       c-0.105,1.65-1.082,2.554-3.159,2.42l-3.649-0.234L36.602,170.517z"/>
					<path style="fill:#FFFFFF;" d="M43.489,165.88l-6.505-0.727l0.192-1.714l2.537-1.084c0.726-0.313,1.582-0.602,2.35-0.813       l-0.001-0.025c-0.87-0.006-1.747-0.075-2.73-0.186l-1.896-0.212l0.152-1.35l6.504,0.728l-0.172,1.54l-2.661,1.114       c-0.745,0.309-1.626,0.642-2.425,0.872v0.033c0.867,0.05,1.789,0.136,2.851,0.254l1.955,0.219L43.489,165.88z"/>
					<path style="fill:#FFFFFF;" d="M37.875,158.283c-0.001-0.551,0.06-1.261,0.177-1.993c0.197-1.226,0.552-1.991,1.119-2.536       c0.609-0.591,1.465-0.886,2.608-0.702c1.239,0.199,2.023,0.784,2.448,1.489c0.458,0.771,0.561,1.856,0.358,3.116       c-0.122,0.76-0.254,1.294-0.362,1.645L37.875,158.283z M43.385,157.67c0.043-0.124,0.078-0.327,0.107-0.506       c0.224-1.322-0.368-2.309-1.913-2.558c-1.343-0.219-2.175,0.455-2.377,1.712c-0.051,0.319-0.059,0.539-0.051,0.673       L43.385,157.67z"/>
					<path style="fill:#FFFFFF;" d="M43.431,148.327l-0.484,2.357l1.523,0.314l0.542-2.635l1.186,0.244l-0.839,4.083l-6.404-1.317       l0.811-3.946l1.186,0.244l-0.513,2.497l1.335,0.275l0.484-2.357L43.431,148.327z"/>
					<path style="fill:#FFFFFF;" d="M40.134,146.15c0.036-0.48,0.146-1.178,0.334-1.943c0.232-0.943,0.539-1.568,1.01-1.932       c0.395-0.305,0.893-0.404,1.478-0.26c0.804,0.198,1.224,0.912,1.286,1.506l0.029,0.008c0.287-0.397,0.769-0.541,1.392-0.557       c0.767-0.02,1.644-0.008,1.92-0.071l-0.363,1.471c-0.207,0.052-0.758,0.084-1.589,0.072c-0.837-0.019-1.116,0.195-1.269,0.785       l-0.105,0.427l2.495,0.615l-0.351,1.424L40.134,146.15z M43.218,145.399l0.138-0.563c0.176-0.712-0.082-1.229-0.635-1.365       c-0.582-0.143-0.978,0.182-1.143,0.837c-0.084,0.344-0.112,0.551-0.111,0.659L43.218,145.399z"/>
					<path style="fill:#FFFFFF;" d="M48.044,141.224l-6.711-0.402l0.457-1.518l2.722,0.301c0.786,0.09,1.639,0.205,2.302,0.295       l0.006-0.019c-0.651-0.306-1.355-0.681-2.086-1.073l-2.401-1.308l0.453-1.505l2.795,0.296c0.771,0.086,1.472,0.181,2.194,0.299       l0.006-0.019c-0.67-0.308-1.356-0.659-2.066-1.023l-2.409-1.278l0.433-1.44l5.778,3.501l-0.46,1.53l-2.858-0.279       c-0.664-0.063-1.285-0.144-2.019-0.279l-0.006,0.019c0.674,0.318,1.238,0.598,1.825,0.938l2.512,1.41L48.044,141.224z"/>
					<path style="fill:#FFFFFF;" d="M48.975,129.478l-0.807,2.269l1.465,0.522l0.903-2.536l1.142,0.406l-1.399,3.93l-6.165-2.195       l1.352-3.799l1.141,0.406l-0.855,2.404l1.285,0.458l0.807-2.269L48.975,129.478z"/>
					<path style="fill:#FFFFFF;" d="M46.48,125.495l6.095,2.374l-0.536,1.378l-6.096-2.375L46.48,125.495z"/>
					<path style="fill:#FFFFFF;" d="M54.896,121.561c-0.036,0.484-0.185,1.36-0.525,2.153c-0.473,1.1-1.088,1.774-1.857,2.099       c-0.76,0.328-1.673,0.294-2.556-0.09c-1.998-0.867-2.509-2.813-1.663-4.783c0.333-0.777,0.738-1.312,1.007-1.549l0.968,0.753       c-0.287,0.271-0.572,0.628-0.856,1.289c-0.487,1.134-0.221,2.27,1.088,2.832c1.242,0.533,2.307,0.062,2.785-1.051       c0.132-0.308,0.203-0.572,0.201-0.702l-1.265-0.543l-0.399,0.929l-1.062-0.456l0.964-2.244L54.896,121.561z"/>
					<path style="fill:#FFFFFF;" d="M50.382,116.507l2.264,1.102l1.068-2.195l-2.264-1.101l0.648-1.331l5.885,2.863l-0.647,1.331       l-2.464-1.198l-1.067,2.195l2.463,1.198l-0.648,1.331l-5.885-2.864L50.382,116.507z"/>
					<path style="fill:#FFFFFF;" d="M54.495,111.126l-0.839,1.553l-1.093-0.591l2.396-4.43l1.093,0.591l-0.852,1.575l4.664,2.522       l-0.704,1.302L54.495,111.126z"/>
					<path style="fill:#FFFFFF;" d="M83.381,80.943l-4.539-4.719l1.244-1.196l2.644,0.788c0.759,0.224,1.603,0.548,2.328,0.877       l0.016-0.02c-0.666-0.561-1.297-1.175-1.983-1.889l-1.323-1.375l0.979-0.942l4.539,4.718l-1.118,1.075l-2.759-0.844       c-0.771-0.239-1.662-0.546-2.423-0.879l-0.022,0.025c0.635,0.594,1.29,1.248,2.032,2.02L84.36,80L83.381,80.943z"/>
					<path style="fill:#FFFFFF;" d="M90.476,69.932c1.41,1.617,1.287,3.445-0.153,4.702c-1.462,1.275-3.286,0.92-4.512-0.486       c-1.285-1.473-1.302-3.405,0.149-4.671C87.472,68.158,89.286,68.569,90.476,69.932z M86.97,73.099       c0.842,0.965,1.891,1.249,2.634,0.601c0.753-0.657,0.563-1.745-0.274-2.703c-0.775-0.888-1.857-1.281-2.623-0.612       C85.952,71.044,86.133,72.141,86.97,73.099z"/>
					<path style="fill:#FFFFFF;" d="M89.352,66.828c0.322-0.359,0.835-0.846,1.45-1.337c0.76-0.605,1.383-0.913,1.98-0.915       c0.498-0.001,0.954,0.225,1.329,0.695c0.516,0.649,0.413,1.47,0.1,1.978l0.019,0.025c0.469-0.14,0.94,0.041,1.444,0.407       c0.619,0.454,1.306,0.997,1.564,1.116l-1.184,0.944c-0.197-0.085-0.653-0.395-1.303-0.912       c-0.653-0.527-1.003-0.526-1.484-0.153l-0.344,0.275l1.602,2.009l-1.146,0.914L89.352,66.828z M92.254,68.114l0.454-0.361       c0.574-0.458,0.684-1.024,0.329-1.469c-0.373-0.469-0.886-0.452-1.416-0.034c-0.277,0.222-0.425,0.368-0.49,0.455       L92.254,68.114z"/>
					<path style="fill:#FFFFFF;" d="M100.846,63.078c-0.488-0.626-1.064-1.375-1.621-2.157l-0.022,0.016       c0.319,0.802,0.639,1.718,0.891,2.489l0.838,2.542l-0.934,0.671l-2.05-1.643c-0.621-0.503-1.34-1.131-1.976-1.737l-0.016,0.011       c0.493,0.743,1.053,1.585,1.497,2.27l1.351,2.09l-1.112,0.799l-3.48-5.561l1.603-1.152l1.795,1.405       c0.606,0.489,1.25,1.039,1.817,1.577l0.026-0.019c-0.297-0.72-0.62-1.551-0.866-2.272l-0.707-2.175l1.573-1.13l4.105,5.112       l-1.168,0.839L100.846,63.078z"/>
					<path style="fill:#FFFFFF;" d="M104.811,61.416l0.518,1.663l-1.287,0.826l-1.851-6.584l1.629-1.045l5.246,4.407l-1.341,0.861       l-1.33-1.142L104.811,61.416z M105.615,59.59l-1.093-0.95c-0.304-0.265-0.666-0.615-0.958-0.883l-0.017,0.011       c0.127,0.375,0.313,0.847,0.429,1.223l0.421,1.38L105.615,59.59z"/>
					<path style="fill:#FFFFFF;" d="M106.443,54.633l1.277-0.748l2.685,4.576l2.246-1.318l0.628,1.069l-3.523,2.067L106.443,54.633z       "/>
					<path style="fill:#FFFFFF;" d="M155.238,39.417c0.439,2.102-0.565,3.636-2.437,4.027c-1.899,0.396-3.316-0.807-3.698-2.633       c-0.399-1.915,0.532-3.608,2.418-4.001C153.487,36.398,154.869,37.645,155.238,39.417z M150.628,40.463       c0.262,1.254,1.038,2.016,2.004,1.814c0.979-0.205,1.345-1.247,1.086-2.492c-0.242-1.154-0.993-2.026-1.989-1.818       C150.748,38.172,150.368,39.218,150.628,40.463z"/>
					<path style="fill:#FFFFFF;" d="M158.28,42.299l-3.111-6.132l1.601-0.257l1.221,2.611c0.35,0.733,0.663,1.433,0.954,2.214       l0.021-0.004c0.039-0.802,0.124-1.604,0.225-2.379l0.378-2.892l1.554-0.249l-1.136,6.814L158.28,42.299z"/>
					<path style="fill:#FFFFFF;" d="M166.315,38.398l-2.39,0.286l0.186,1.545l2.671-0.32l0.144,1.203l-4.14,0.496l-0.779-6.495       l4.001-0.479l0.144,1.203l-2.533,0.303l0.162,1.354l2.39-0.287L166.315,38.398z"/>
					<path style="fill:#FFFFFF;" d="M167.373,34.584c0.467-0.118,1.164-0.234,1.949-0.296c0.968-0.077,1.658,0.017,2.153,0.349       c0.414,0.278,0.665,0.72,0.712,1.32c0.065,0.826-0.479,1.449-1.024,1.695l0.002,0.031c0.467,0.147,0.757,0.559,0.968,1.145       c0.26,0.723,0.526,1.557,0.673,1.8l-1.511,0.12c-0.115-0.181-0.319-0.692-0.569-1.485c-0.246-0.801-0.538-0.997-1.145-0.957       l-0.439,0.035l0.204,2.561l-1.462,0.117L167.373,34.584z M169.057,37.273l0.578-0.045c0.732-0.059,1.141-0.466,1.095-1.034       c-0.047-0.597-0.481-0.87-1.156-0.82c-0.353,0.028-0.558,0.068-0.66,0.102L169.057,37.273z"/>
					<path style="fill:#FFFFFF;" d="M174.518,40.534l-1.739-6.499l1.585-0.045l0.574,2.68c0.163,0.775,0.323,1.621,0.447,2.278       h0.021c0.084-0.714,0.218-1.502,0.36-2.321l0.482-2.692l1.572-0.046l0.603,2.747c0.162,0.76,0.293,1.455,0.408,2.177h0.02       c0.082-0.733,0.197-1.496,0.319-2.285l0.452-2.691l1.503-0.044l-1.498,6.593l-1.598,0.046l-0.639-2.802       c-0.149-0.651-0.269-1.266-0.373-2.004h-0.02c-0.089,0.741-0.176,1.364-0.314,2.03l-0.545,2.831L174.518,40.534z"/>
					<path style="fill:#FFFFFF;" d="M185.953,37.694l-2.408-0.047l-0.031,1.556l2.692,0.053l-0.024,1.212l-4.172-0.083l0.13-6.544       l4.032,0.079l-0.025,1.213l-2.552-0.051l-0.027,1.364l2.408,0.047L185.953,37.694z"/>
					<path style="fill:#FFFFFF;" d="M188.935,34.055l-0.31,6.534l-1.477-0.07l0.309-6.534L188.935,34.055z"/>
					<path style="fill:#FFFFFF;" d="M195.329,40.775c-0.47,0.12-1.348,0.26-2.208,0.19c-1.192-0.097-2.027-0.465-2.581-1.09       c-0.552-0.616-0.812-1.492-0.73-2.451c0.184-2.169,1.865-3.276,4.002-3.102c0.842,0.068,1.478,0.28,1.788,0.46l-0.404,1.157       c-0.349-0.185-0.779-0.341-1.496-0.4c-1.229-0.099-2.221,0.516-2.336,1.935c-0.109,1.347,0.677,2.205,1.885,2.303       c0.333,0.028,0.607,0.01,0.729-0.033l0.111-1.371l-1.009-0.082l0.094-1.151l2.434,0.198L195.329,40.775z"/>
					<path style="fill:#FFFFFF;" d="M198.693,34.897l-0.322,2.494l2.417,0.312l0.322-2.493l1.466,0.189l-0.838,6.484l-1.466-0.189       l0.352-2.714l-2.418-0.312l-0.35,2.713l-1.465-0.189l0.837-6.484L198.693,34.897z"/>
					<path style="fill:#FFFFFF;" d="M205.101,37.073l-1.739-0.301l0.212-1.224l4.96,0.86l-0.212,1.223l-1.763-0.305l-0.906,5.22       l-1.457-0.252L205.101,37.073z"/>
					<path style="fill:#FFFFFF;" d="M256.594,58.702c-1.103,1.842-2.882,2.291-4.524,1.307c-1.665-0.997-1.891-2.843-0.932-4.444       c1.005-1.68,2.839-2.292,4.493-1.302C257.353,55.295,257.524,57.148,256.594,58.702z M252.494,56.344       c-0.658,1.1-0.604,2.186,0.243,2.693c0.858,0.514,1.835-0.004,2.489-1.096c0.605-1.012,0.644-2.164-0.229-2.687       C254.137,54.74,253.148,55.251,252.494,56.344z"/>
					<path style="fill:#FFFFFF;" d="M259.188,56.678c0.366,0.152,1.051,0.527,1.67,0.936c0.752,0.497,1.165,0.878,1.41,1.375       c0.248,0.456,0.27,1.005-0.062,1.506c-0.317,0.479-0.898,0.747-1.663,0.567l-0.014,0.021c0.515,0.576,0.664,1.357,0.202,2.056       c-0.331,0.499-0.819,0.737-1.335,0.782c-0.613,0.057-1.388-0.204-2.474-0.923c-0.608-0.403-1.031-0.74-1.281-0.963       L259.188,56.678z M257.43,61.99c0.105,0.099,0.25,0.198,0.458,0.335c0.56,0.371,1.196,0.48,1.576-0.094       c0.362-0.547,0.017-1.088-0.598-1.497l-0.422-0.278L257.43,61.99z M259.028,59.575l0.4,0.265       c0.654,0.433,1.175,0.388,1.443-0.019c0.275-0.414,0.104-0.841-0.453-1.21c-0.27-0.178-0.433-0.262-0.548-0.308L259.028,59.575       z"/>
					<path style="fill:#FFFFFF;" d="M265.21,65.309l-1.953-1.406l-0.909,1.262l2.184,1.572l-0.708,0.983l-3.384-2.435l3.821-5.308       l3.269,2.354l-0.708,0.983l-2.07-1.49l-0.796,1.105l1.953,1.406L265.21,65.309z"/>
					<path style="fill:#FFFFFF;" d="M265.573,67.133c0.18,0.406,0.542,0.944,1.041,1.332c0.535,0.418,0.993,0.417,1.257,0.077       c0.247-0.316,0.147-0.695-0.301-1.393c-0.622-0.977-0.819-1.883-0.232-2.636c0.685-0.88,1.945-0.973,3.157-0.027       c0.588,0.458,0.922,0.906,1.115,1.285l-0.987,0.735c-0.129-0.258-0.385-0.694-0.886-1.085c-0.508-0.396-0.933-0.35-1.139-0.086       c-0.256,0.328-0.082,0.695,0.389,1.47c0.647,1.052,0.7,1.857,0.132,2.585c-0.671,0.861-1.906,1.087-3.326-0.021       c-0.585-0.456-1.046-1.07-1.207-1.456L265.573,67.133z"/>
					<path style="fill:#FFFFFF;" d="M273.436,71.9l-1.843-1.549l-1,1.191l2.059,1.732l-0.78,0.927l-3.192-2.684l4.21-5.007       l3.085,2.593l-0.78,0.928l-1.952-1.642l-0.877,1.043l1.842,1.549L273.436,71.9z"/>
					<path style="fill:#FFFFFF;" d="M300.098,102.629l-1.329-2.007l-1.298,0.858l1.485,2.245l-1.011,0.669l-2.302-3.478l5.457-3.611       l2.224,3.361l-1.011,0.669l-1.408-2.128l-1.137,0.752l1.329,2.008L300.098,102.629z"/>
					<path style="fill:#FFFFFF;" d="M300.238,108.139l0.706-1.119c0.269-0.44,0.477-0.757,0.707-1.106l-0.01-0.017       c-0.395,0.079-0.771,0.12-1.268,0.173l-1.297,0.152l-0.873-1.442l3.815-0.1l1.817-3.234l0.882,1.454l-0.722,1.107       c-0.241,0.37-0.444,0.659-0.678,0.981l0.013,0.022c0.438-0.081,0.749-0.128,1.158-0.181l1.307-0.149l0.876,1.445l-3.687,0.078       l-1.859,3.398L300.238,108.139z"/>
					<path style="fill:#FFFFFF;" d="M306.753,108.834l-0.853-1.545l1.086-0.601l2.434,4.407l-1.086,0.601l-0.866-1.567l-4.639,2.561       l-0.715-1.294L306.753,108.834z"/>
					<path style="fill:#FFFFFF;" d="M309.794,112.022c0.285,0.388,0.655,0.99,1.007,1.693c0.436,0.868,0.608,1.541,0.486,2.125       c-0.101,0.488-0.416,0.886-0.954,1.156c-0.74,0.371-1.521,0.101-1.954-0.312l-0.027,0.014c0.04,0.488-0.234,0.91-0.697,1.327       c-0.57,0.512-1.244,1.071-1.412,1.3l-0.679-1.353c0.124-0.175,0.521-0.557,1.16-1.086c0.649-0.529,0.722-0.872,0.456-1.42       l-0.198-0.393l-2.295,1.152l-0.656-1.31L309.794,112.022z M307.937,114.593l0.26,0.517c0.33,0.655,0.86,0.88,1.369,0.625       c0.535-0.268,0.624-0.772,0.325-1.377c-0.159-0.317-0.273-0.492-0.343-0.573L307.937,114.593z"/>
					<path style="fill:#FFFFFF;" d="M310.679,122.434l-0.991-2.195l-1.419,0.64l1.108,2.453l-1.105,0.499l-1.716-3.802l5.965-2.694       l1.66,3.675l-1.104,0.499l-1.051-2.326l-1.243,0.561l0.991,2.195L310.679,122.434z"/>
					<path style="fill:#FFFFFF;" d="M313.023,128.9c0.726-0.32,1.592-0.694,2.486-1.044l-0.01-0.025       c-0.855,0.114-1.822,0.2-2.63,0.255l-2.667,0.191l-0.423-1.069l2.093-1.585c0.638-0.479,1.424-1.023,2.165-1.491l-0.008-0.019       c-0.839,0.296-1.792,0.634-2.564,0.897l-2.354,0.799l-0.503-1.273l6.239-2.015l0.725,1.835l-1.799,1.397       c-0.621,0.468-1.312,0.958-1.972,1.375l0.011,0.029c0.77-0.112,1.655-0.224,2.414-0.285l2.28-0.154l0.711,1.8l-5.956,2.731       l-0.529-1.338L313.023,128.9z"/>
					<path style="fill:#FFFFFF;" d="M315.466,135.035l-0.779-2.279l-1.473,0.503l0.87,2.548l-1.147,0.391l-1.348-3.948l6.195-2.115       l1.302,3.817l-1.147,0.391l-0.825-2.415l-1.29,0.441l0.778,2.28L315.466,135.035z"/>
					<path style="fill:#FFFFFF;" d="M319.485,135.224l0.426,1.417l-5.077,1.528l0.75,2.492l-1.187,0.357l-1.176-3.908       L319.485,135.224z"/>
					<path style="fill:#FFFFFF;" d="M314.769,142.431l2.593-0.687l3.203-2.987l0.434,1.639l-1.351,1.046       c-0.404,0.314-0.705,0.543-1.083,0.809l0.006,0.019c0.431,0.037,0.842,0.091,1.338,0.155l1.689,0.235l0.427,1.612l-4.236-1.111       l-2.641,0.7L314.769,142.431z"/>
					<path style="fill:#FFFFFF;" d="M320.747,153.676c-2.104,0.425-3.633-0.587-4.012-2.463c-0.385-1.902,0.828-3.313,2.657-3.682       c1.918-0.387,3.605,0.555,3.987,2.444C323.778,151.943,322.522,153.317,320.747,153.676z M319.73,149.058       c-1.256,0.255-2.022,1.026-1.826,1.993c0.198,0.98,1.237,1.354,2.485,1.102c1.157-0.234,2.034-0.979,1.832-1.978       C322.021,149.192,320.978,148.806,319.73,149.058z"/>
					<path style="fill:#FFFFFF;" d="M323.988,154.25c0.133,0.372,0.317,1.133,0.43,1.864c0.137,0.891,0.134,1.453-0.067,1.968       c-0.171,0.489-0.563,0.875-1.156,0.967c-0.568,0.087-1.156-0.163-1.538-0.85l-0.025,0.004       c-0.079,0.768-0.558,1.404-1.386,1.532c-0.592,0.091-1.096-0.11-1.477-0.461c-0.454-0.415-0.781-1.163-0.98-2.451       c-0.112-0.72-0.146-1.26-0.149-1.594L323.988,154.25z M318.876,156.521c-0.002,0.144,0.022,0.317,0.06,0.565       c0.102,0.664,0.449,1.208,1.13,1.103c0.647-0.1,0.816-0.719,0.705-1.448l-0.078-0.499L318.876,156.521z M321.736,156.08       l0.073,0.474c0.12,0.775,0.504,1.129,0.984,1.055c0.491-0.076,0.692-0.489,0.59-1.149c-0.049-0.319-0.098-0.496-0.14-0.612       L321.736,156.08z"/>
					<path style="fill:#FFFFFF;" d="M321.656,164.534l-0.271-2.394l-1.547,0.176l0.303,2.675l-1.205,0.137l-0.47-4.146l6.504-0.739       l0.455,4.007l-1.205,0.137l-0.287-2.537l-1.355,0.153l0.272,2.394L321.656,164.534z"/>
					<path style="fill:#FFFFFF;" d="M320.548,165.99c-0.18,0.406-0.332,1.035-0.284,1.666c0.051,0.677,0.36,1.016,0.789,0.982       c0.401-0.03,0.614-0.36,0.829-1.162c0.303-1.118,0.841-1.875,1.794-1.947c1.113-0.085,2.03,0.783,2.147,2.318       c0.057,0.744-0.05,1.292-0.201,1.691l-1.208-0.236c0.103-0.268,0.254-0.752,0.206-1.385c-0.049-0.643-0.37-0.926-0.704-0.901       c-0.415,0.031-0.57,0.406-0.825,1.278c-0.343,1.188-0.902,1.768-1.824,1.839c-1.089,0.083-2.088-0.679-2.225-2.475       c-0.057-0.739,0.088-1.495,0.264-1.874L320.548,165.99z"/>
					<path style="fill:#FFFFFF;" d="M322.315,175.02l-0.096-2.405l-1.554,0.063l0.107,2.687l-1.211,0.048l-0.165-4.165l6.534-0.259       l0.16,4.025l-1.211,0.048l-0.101-2.548l-1.361,0.054l0.096,2.404L322.315,175.02z"/>
				</g>
				<g>
					<path style="fill:#FFFFFF;" d="M82.785,163.153l-1.534-5.024l0.686,0.124l1.239,4.222l0.02,0.004l2.638-3.521l0.685,0.124       l-3.196,4.169L82.785,163.153z"/>
					<path style="fill:#FFFFFF;" d="M81.623,154.89l-0.005,0.02l0.331,1.247l-0.694,0.008l-0.406-1.567l0.176-0.73l6.359,1.53       l-0.2,0.83L81.623,154.89z"/>
					<path style="fill:#FFFFFF;" d="M86.332,152.762c-0.79-0.235-1.209-0.876-1.317-1.74l-0.029-0.007       c-0.532,0.604-1.159,0.746-1.705,0.584c-0.989-0.295-1.417-1.34-1.087-2.446c0.36-1.212,1.301-1.597,2.084-1.364       c0.533,0.159,1.028,0.595,1.158,1.468l0.031,0.009c0.537-0.688,1.239-1.004,1.995-0.78c1.095,0.326,1.549,1.477,1.191,2.681       C88.265,152.475,87.249,153.035,86.332,152.762z M83.462,150.772c0.627,0.192,1.109-0.185,1.515-0.848       c-0.019-0.592-0.282-1.122-0.857-1.292c-0.495-0.148-1.106-0.005-1.334,0.759C82.577,150.094,82.927,150.613,83.462,150.772z        M87.294,149.374c-0.758-0.225-1.285,0.196-1.775,0.973c-0.009,0.793,0.36,1.339,0.956,1.516       c0.626,0.214,1.325-0.098,1.564-0.9C88.266,150.198,87.938,149.566,87.294,149.374z"/>
					<path style="fill:#FFFFFF;" d="M90.523,148.962c-0.5-0.402-1.428-1.003-2.09-1.344l0.221-0.964       c0.736,0.5,1.65,1.275,2.007,1.696L90.523,148.962z"/>
					<path style="fill:#FFFFFF;" d="M86.038,140.656l-0.886,2.329l1.483,0.834c0.033-0.147,0.069-0.284,0.154-0.51       c0.182-0.476,0.46-0.9,0.834-1.194c0.446-0.373,1.132-0.568,1.903-0.275c1.195,0.455,1.726,1.742,1.221,3.07       c-0.256,0.671-0.657,1.158-0.958,1.383l-0.552-0.451c0.245-0.193,0.63-0.62,0.843-1.179c0.295-0.774,0.038-1.644-0.786-1.952       c-0.788-0.294-1.55,0.022-2.015,1.243c-0.135,0.355-0.208,0.637-0.261,0.875l-2.787-1.515l1.112-2.923L86.038,140.656z"/>
					<path style="fill:#FFFFFF;" d="M105.523,109.768l-0.013,0.015l-0.314,1.252l-0.611-0.329l0.402-1.57l0.507-0.554l4.83,4.416       l-0.577,0.63L105.523,109.768z"/>
					<path style="fill:#FFFFFF;" d="M110.671,110.191c-0.578-0.588-0.635-1.352-0.312-2.16l-0.023-0.021       c-0.758,0.273-1.375,0.094-1.774-0.313c-0.724-0.735-0.593-1.858,0.229-2.667c0.901-0.886,1.911-0.769,2.484-0.187       c0.39,0.397,0.613,1.017,0.305,1.845l0.023,0.024c0.802-0.343,1.571-0.28,2.123,0.281c0.801,0.816,0.642,2.041-0.253,2.922       C112.502,110.873,111.342,110.873,110.671,110.191z M109.121,107.062c0.456,0.472,1.061,0.374,1.735-0.01       c0.27-0.527,0.296-1.118-0.125-1.545c-0.363-0.368-0.967-0.539-1.535,0.019C108.673,106.04,108.729,106.664,109.121,107.062z        M113.15,107.69c-0.554-0.564-1.219-0.45-2.023-0.007c-0.392,0.69-0.332,1.346,0.103,1.789c0.445,0.49,1.209,0.554,1.805-0.032       C113.603,108.881,113.622,108.169,113.15,107.69z"/>
					<path style="fill:#FFFFFF;" d="M116.186,108.878c-0.244-0.594-0.767-1.569-1.182-2.187l0.659-0.739       c0.403,0.794,0.83,1.914,0.94,2.455L116.186,108.878z"/>
					<path style="fill:#FFFFFF;" d="M116.235,99.461l-1.897,1.615l0.899,1.444c0.101-0.112,0.198-0.215,0.381-0.371       c0.388-0.33,0.836-0.567,1.305-0.645c0.57-0.113,1.265,0.045,1.8,0.674c0.828,0.973,0.674,2.357-0.406,3.278       c-0.548,0.465-1.134,0.699-1.505,0.751l-0.267-0.66c0.309-0.051,0.85-0.241,1.306-0.628c0.63-0.537,0.823-1.423,0.25-2.089       c-0.549-0.637-1.369-0.728-2.363,0.119c-0.289,0.246-0.489,0.457-0.65,0.641l-1.715-2.667l2.382-2.027L116.235,99.461z"/>
					<path style="fill:#FFFFFF;" d="M120.899,99.297l0.4,0.512l-1.958,1.531l-0.4-0.512L120.899,99.297z"/>
					<path style="fill:#FFFFFF;" d="M123.319,101.269l-0.313-0.438l0.172-0.953c0.43-2.268,0.554-3.402-0.016-4.207       c-0.388-0.54-1.002-0.857-1.794-0.29c-0.487,0.348-0.706,0.883-0.81,1.261l-0.59-0.34c0.143-0.569,0.504-1.179,1.118-1.618       c1.144-0.819,2.188-0.378,2.73,0.38c0.709,0.988,0.565,2.291,0.214,4.168l-0.136,0.699l0.012,0.016l2.383-1.707l0.427,0.596       L123.319,101.269z"/>
					<path style="fill:#FFFFFF;" d="M129.759,96.866l-0.961-1.504l-2.56,1.635l-0.311-0.487l0.206-5.091l0.808-0.516l2.191,3.431       l0.774-0.494l0.368,0.578l-0.773,0.493l0.961,1.504L129.759,96.866z M128.429,94.784l-1.178-1.845       c-0.184-0.287-0.358-0.581-0.524-0.882l-0.031,0.014c0.038,0.439,0.055,0.762,0.065,1.113l-0.146,2.735l0.009,0.018       L128.429,94.784z"/>
					<path style="fill:#FFFFFF;" d="M132.154,96.847c-0.116-0.631-0.425-1.693-0.704-2.383l0.798-0.586       c0.23,0.86,0.415,2.044,0.411,2.596L132.154,96.847z"/>
					<path style="fill:#FFFFFF;" d="M133.666,93.799c0.176-0.076,0.362-0.192,0.609-0.368c0.421-0.298,0.748-0.714,0.911-1.206       c0.189-0.554,0.19-1.207-0.07-1.944l-0.023,0.013c-0.112,0.566-0.447,1.04-1.029,1.355c-1.035,0.558-2.121,0.136-2.652-0.851       c-0.585-1.084-0.311-2.472,0.868-3.107c1.175-0.634,2.419-0.073,3.217,1.407c0.682,1.265,0.731,2.379,0.462,3.239       c-0.21,0.666-0.677,1.266-1.262,1.672c-0.254,0.191-0.503,0.341-0.687,0.429L133.666,93.799z M132.161,90.337       c0.387,0.717,1.093,0.989,1.771,0.623c0.519-0.28,0.788-0.761,0.808-1.217c-0.001-0.093-0.015-0.194-0.085-0.323       c-0.529-0.988-1.3-1.536-2.117-1.097C131.873,88.682,131.719,89.521,132.161,90.337z"/>
					<path style="fill:#FFFFFF;" d="M163.738,83.587l-0.085-0.532l0.579-0.777c1.397-1.839,2.015-2.8,1.862-3.775       c-0.105-0.657-0.515-1.215-1.478-1.061c-0.591,0.095-1.026,0.476-1.287,0.768l-0.377-0.567       c0.382-0.446,0.978-0.831,1.723-0.951c1.391-0.223,2.128,0.639,2.276,1.558c0.193,1.201-0.517,2.305-1.668,3.829l-0.434,0.565       l0.003,0.02l2.898-0.465l0.117,0.724L163.738,83.587z"/>
					<path style="fill:#FFFFFF;" d="M172.029,76.622l-2.475,0.263l-0.072,1.699c0.146-0.036,0.284-0.067,0.524-0.092       c0.506-0.054,1.01,0.003,1.441,0.203c0.533,0.228,1.017,0.75,1.105,1.571c0.135,1.269-0.771,2.326-2.183,2.476       c-0.714,0.076-1.33-0.062-1.665-0.228l0.152-0.695c0.283,0.132,0.837,0.28,1.432,0.217c0.823-0.087,1.482-0.71,1.383-1.582       c-0.094-0.836-0.72-1.372-2.018-1.233c-0.377,0.04-0.661,0.102-0.898,0.163l0.089-3.168l3.107-0.331L172.029,76.622z"/>
					<path style="fill:#FFFFFF;" d="M175.967,79.108l0.043,0.648l-2.481,0.161l-0.043-0.648L175.967,79.108z"/>
					<path style="fill:#FFFFFF;" d="M176.845,82.099l-0.013-0.539l0.679-0.691c1.632-1.631,2.373-2.5,2.354-3.486       c-0.015-0.664-0.345-1.273-1.32-1.25c-0.598,0.014-1.08,0.333-1.378,0.587l-0.297-0.613c0.439-0.39,1.081-0.692,1.835-0.709       c1.407-0.033,2.021,0.92,2.042,1.851c0.029,1.215-0.824,2.212-2.169,3.566l-0.507,0.501l0.001,0.02l2.932-0.069l0.017,0.733       L176.845,82.099z"/>
					<path style="fill:#FFFFFF;" d="M182.462,81.392c0.19,0.023,0.41,0.014,0.711-0.014c0.512-0.048,1.004-0.245,1.391-0.589       c0.441-0.386,0.767-0.951,0.909-1.719h-0.026c-0.38,0.435-0.907,0.678-1.568,0.659c-1.176-0.032-1.905-0.94-1.874-2.059       c0.034-1.229,0.964-2.295,2.302-2.258c1.334,0.037,2.132,1.143,2.085,2.823c-0.04,1.436-0.553,2.426-1.215,3.036       c-0.514,0.473-1.218,0.76-1.927,0.819c-0.315,0.039-0.606,0.045-0.809,0.029L182.462,81.392z M182.885,77.643       c-0.022,0.814,0.454,1.401,1.224,1.423c0.589,0.017,1.062-0.265,1.307-0.652c0.045-0.08,0.083-0.175,0.087-0.321       c0.033-1.121-0.361-1.981-1.286-2.006C183.461,76.065,182.91,76.715,182.885,77.643z"/>
					<path style="fill:#FFFFFF;" d="M186.65,83.412c0.26-0.587,0.601-1.641,0.759-2.368l0.99-0.037       c-0.294,0.841-0.806,1.925-1.12,2.38L186.65,83.412z"/>
					<path style="fill:#FFFFFF;" d="M189.633,81.74c0.188,0.037,0.408,0.044,0.71,0.039c0.515-0.011,1.02-0.172,1.431-0.486       c0.467-0.353,0.834-0.892,1.033-1.648l-0.025-0.002c-0.411,0.405-0.955,0.61-1.612,0.543c-1.171-0.119-1.832-1.078-1.718-2.193       c0.125-1.224,1.131-2.219,2.463-2.084c1.328,0.135,2.043,1.299,1.873,2.971c-0.146,1.428-0.73,2.38-1.436,2.938       c-0.548,0.434-1.271,0.669-1.983,0.675c-0.318,0.016-0.608,0.001-0.81-0.029L189.633,81.74z M190.333,78.031       c-0.082,0.811,0.349,1.432,1.115,1.51c0.586,0.06,1.08-0.187,1.353-0.554c0.051-0.077,0.096-0.169,0.111-0.314       c0.116-1.115-0.214-2.002-1.137-2.095C191.022,76.5,190.424,77.108,190.333,78.031z"/>
					<path style="fill:#FFFFFF;" d="M224.693,91.16c0.15,0.255,0.549,0.745,1.1,1.032c1.003,0.524,1.651,0.05,1.899-0.438       c0.417-0.82-0.138-1.55-0.893-1.945l-0.439-0.229l0.309-0.589l0.439,0.229c0.57,0.298,1.447,0.382,1.804-0.303       c0.244-0.466,0.161-1.03-0.563-1.408c-0.46-0.241-1.014-0.271-1.356-0.222l0.085-0.678c0.423-0.066,1.129,0.018,1.753,0.344       c1.148,0.6,1.314,1.547,0.943,2.257c-0.313,0.599-0.944,0.917-1.785,0.806l-0.01,0.018c0.643,0.509,0.936,1.351,0.512,2.161       c-0.483,0.926-1.636,1.361-3.026,0.635c-0.652-0.34-1.114-0.839-1.296-1.181L224.693,91.16z"/>
					<path style="fill:#FFFFFF;" d="M233.977,93.665c-1.129,1.913-2.47,2.549-3.715,1.814c-1.101-0.65-1.241-2.123-0.159-3.996       c1.119-1.895,2.55-2.452,3.695-1.776C234.986,90.408,235.037,91.87,233.977,93.665z M230.869,91.939       c-0.87,1.469-0.907,2.566-0.214,2.974c0.778,0.459,1.686-0.23,2.534-1.666c0.822-1.392,1.005-2.506,0.213-2.974       C232.738,89.882,231.771,90.41,230.869,91.939z"/>
					<path style="fill:#FFFFFF;" d="M236.518,95.671l-0.353,0.545l-2.086-1.352l0.353-0.546L236.518,95.671z"/>
					<path style="fill:#FFFFFF;" d="M236.197,97.894c0.114,0.272,0.443,0.813,0.95,1.173c0.923,0.655,1.629,0.274,1.942-0.176       c0.525-0.757,0.073-1.555-0.622-2.05l-0.404-0.286l0.385-0.543l0.404,0.287c0.526,0.372,1.383,0.575,1.83-0.056       c0.305-0.429,0.299-0.998-0.367-1.471c-0.424-0.301-0.97-0.406-1.316-0.404l0.177-0.66c0.427-0.009,1.117,0.171,1.691,0.579       c1.056,0.75,1.092,1.712,0.629,2.365c-0.392,0.551-1.061,0.781-1.878,0.557l-0.012,0.017c0.568,0.591,0.745,1.465,0.216,2.211       c-0.605,0.853-1.807,1.127-3.086,0.219c-0.6-0.425-0.99-0.983-1.124-1.347L236.197,97.894z"/>
					<path style="fill:#FFFFFF;" d="M241.711,103.255l1.108-1.399l-2.381-1.885l0.359-0.453l4.878-1.467l0.751,0.596l-2.526,3.19       l0.72,0.569l-0.426,0.538l-0.719-0.569l-1.107,1.399L241.711,103.255z M243.245,101.318l1.358-1.716       c0.211-0.267,0.432-0.528,0.663-0.782l-0.024-0.026c-0.403,0.179-0.702,0.301-1.031,0.425l-2.632,0.755l-0.014,0.014       L243.245,101.318z"/>
					<path style="fill:#FFFFFF;" d="M242.495,105.501c0.559-0.316,1.462-0.957,2.023-1.446l0.815,0.562       c-0.737,0.499-1.796,1.062-2.319,1.239L242.495,105.501z"/>
					<path style="fill:#FFFFFF;" d="M245.87,105.934c0.128,0.141,0.299,0.278,0.546,0.455c0.419,0.299,0.919,0.474,1.437,0.467       c0.586-0.004,1.202-0.216,1.813-0.703l-0.02-0.017c-0.571,0.08-1.129-0.081-1.616-0.529c-0.866-0.796-0.822-1.958-0.064-2.783       c0.832-0.907,2.232-1.102,3.218-0.197c0.982,0.903,0.86,2.261-0.276,3.498c-0.971,1.058-2.007,1.469-2.907,1.496       c-0.698,0.02-1.418-0.224-1.992-0.644c-0.264-0.177-0.487-0.364-0.63-0.508L245.87,105.934z M248.646,103.38       c-0.549,0.601-0.576,1.355-0.009,1.877c0.434,0.398,0.976,0.495,1.413,0.365c0.087-0.031,0.178-0.078,0.278-0.186       c0.76-0.824,1.025-1.732,0.343-2.358C250.114,102.566,249.272,102.696,248.646,103.38z"/>
					<path style="fill:#FFFFFF;" d="M273.352,142.027l-4.032-3.356l0.639-0.273l3.369,2.87l0.019-0.008l0.256-4.419l0.638-0.273       l-0.363,5.233L273.352,142.027z"/>
					<path style="fill:#FFFFFF;" d="M272.536,143.756c-0.062,0.287-0.098,0.919,0.112,1.502c0.385,1.062,1.181,1.151,1.694,0.96       c0.86-0.323,0.944-1.234,0.655-2.036l-0.169-0.464l0.625-0.226l0.169,0.466c0.219,0.604,0.807,1.258,1.533,0.995       c0.493-0.179,0.813-0.649,0.536-1.416c-0.177-0.488-0.565-0.885-0.849-1.08l0.52-0.441c0.356,0.237,0.819,0.776,1.058,1.437       c0.44,1.217-0.078,2.026-0.83,2.298c-0.636,0.229-1.315,0.037-1.858-0.612l-0.019,0.008c0.13,0.808-0.223,1.625-1.082,1.936       c-0.981,0.354-2.123-0.104-2.655-1.576c-0.249-0.691-0.253-1.371-0.155-1.745L272.536,143.756z"/>
					<path style="fill:#FFFFFF;" d="M279.9,150.738l-0.721-2.384l-1.683,0.246c0.063,0.136,0.119,0.267,0.189,0.497       c0.147,0.488,0.186,0.994,0.07,1.454c-0.126,0.567-0.548,1.14-1.339,1.38c-1.222,0.369-2.43-0.324-2.841-1.683       c-0.207-0.688-0.188-1.319-0.087-1.68l0.712,0.019c-0.077,0.303-0.119,0.875,0.054,1.448c0.24,0.792,0.974,1.323,1.814,1.064       c0.803-0.248,1.212-0.963,0.835-2.213c-0.11-0.364-0.224-0.631-0.328-0.853l3.13-0.504l0.906,2.992L279.9,150.738z"/>
				</g>
			</g>
		</g>
	</g>
	
	
	
</g>
</svg>